<?xml version="1.0" encoding="UTF-8" standalone="no"?>
<!-- Created with Inkscape (http://www.inkscape.org/) -->

<svg
   xmlns:dc="http://purl.org/dc/elements/1.1/"
   xmlns:cc="http://creativecommons.org/ns#"
   xmlns:rdf="http://www.w3.org/1999/02/22-rdf-syntax-ns#"
   xmlns:svg="http://www.w3.org/2000/svg"
   xmlns="http://www.w3.org/2000/svg"
   xmlns:sodipodi="http://sodipodi.sourceforge.net/DTD/sodipodi-0.dtd"
   xmlns:inkscape="http://www.inkscape.org/namespaces/inkscape"
   width="16"
   height="16"
   viewBox="0 0 4.2333332 4.2333335"
   version="1.1"
   id="svg821"
   inkscape:version="0.92.5 (2060ec1f9f, 2020-04-08)"
   sodipodi:docname="ColPick.svg">
  <defs
     id="defs815" />
  <sodipodi:namedview
     id="base"
     pagecolor="#ffffff"
     bordercolor="#666666"
     borderopacity="1.0"
     inkscape:pageopacity="0.0"
     inkscape:pageshadow="2"
     inkscape:zoom="32"
     inkscape:cx="10.891"
     inkscape:cy="5.8958593"
     inkscape:document-units="mm"
     inkscape:current-layer="layer1"
     showgrid="true"
     units="px"
     inkscape:window-width="1680"
     inkscape:window-height="1013"
     inkscape:window-x="0"
     inkscape:window-y="0"
     inkscape:window-maximized="1">
    <inkscape:grid
       type="xygrid"
       id="grid1366" />
  </sodipodi:namedview>
  <metadata
     id="metadata818">
    <rdf:RDF>
      <cc:Work
         rdf:about="">
        <dc:format>image/svg+xml</dc:format>
        <dc:type
           rdf:resource="http://purl.org/dc/dcmitype/StillImage" />
        <dc:title></dc:title>
      </cc:Work>
    </rdf:RDF>
  </metadata>
  <g
     inkscape:label="Layer 1"
     inkscape:groupmode="layer"
     id="layer1"
     transform="translate(0,-292.76665)">
    <path
       style="fill:#00ff00;fill-opacity:1;stroke:none;stroke-width:0.30315232;stroke-linecap:butt;stroke-linejoin:miter;stroke-miterlimit:4;stroke-dasharray:none;stroke-opacity:1;paint-order:stroke fill markers"
       d="M 2.1208008,292.76665 A 2.1208008,2.1166606 0 0 0 0,294.88332 h 0.60594306 a 1.5148577,1.5119031 0 0 1 1.51485774,-1.5119 z"
       id="path1456"
       inkscape:connector-curvature="0" />
    <g
       id="g1472" />
    <path
       style="fill:#ff0000;fill-opacity:1;stroke:none;stroke-width:0.30315232;stroke-linecap:butt;stroke-linejoin:miter;stroke-miterlimit:4;stroke-dasharray:none;stroke-opacity:1;paint-order:stroke fill markers"
       d="m 0,294.88332 a 2.1208008,2.1166606 0 0 0 2.1208008,2.11666 v -0.60476 a 1.5148577,1.5119031 0 0 1 -1.51485774,-1.5119 z"
       id="path1456-6"
       inkscape:connector-curvature="0" />
    <path
       style="fill:#ffff00;fill-opacity:1;stroke:none;stroke-width:0.30315232;stroke-linecap:butt;stroke-linejoin:miter;stroke-miterlimit:4;stroke-dasharray:none;stroke-opacity:1;paint-order:stroke fill markers"
       d="m 3.6356583,294.88332 a 1.5148577,1.5119031 0 0 1 -1.5148575,1.5119 v 0.60476 a 2.1208005,2.1166606 0 0 0 2.1208006,-2.11666 z"
       id="path1456-6-7"
       inkscape:connector-curvature="0" />
    <path
       style="fill:#ff00ff;fill-opacity:1;stroke:none;stroke-width:0.30318174;stroke-linecap:butt;stroke-linejoin:miter;stroke-miterlimit:4;stroke-dasharray:none;stroke-opacity:1;paint-order:stroke fill markers"
       d="m 0.6059431,294.88332 a 1.5148592,1.5121948 0 0 0 0.007695,0.15124 1.5148592,1.5121948 0 0 0 0.0224862,0.14944 1.5148592,1.5121948 0 0 0 0.0372795,0.14649 1.5148592,1.5121948 0 0 0 0.0520729,0.14177 1.5148592,1.5121948 0 0 0 0.0656835,0.13586 1.5148592,1.5121948 0 0 0 0.079294,0.12878 1.5148592,1.5121948 0 0 0 0.0917194,0.1205 1.5148592,1.5121948 0 0 0 0.102963,0.11039 1.5148592,1.5121948 0 0 0 0.1142055,0.0998 1.5148592,1.5121948 0 0 0 0.1230823,0.0879 1.5148592,1.5121948 0 0 0 0.1313667,0.075 1.5148592,1.5121948 0 0 0 0.1378759,0.0621 1.5148592,1.5121948 0 0 0 0.1437932,0.0478 1.5148592,1.5121948 0 0 0 0.1479355,0.033 1.5148592,1.5121948 0 0 0 0.1503024,0.0183 1.5148592,1.5121948 0 0 0 0.1071048,0.003 v -1.51219 z"
       id="path1563"
       inkscape:connector-curvature="0" />
    <path
       style="fill:#0000ff;fill-opacity:1;stroke:none;stroke-width:0.30315247;stroke-linecap:butt;stroke-linejoin:miter;stroke-miterlimit:4;stroke-dasharray:none;stroke-opacity:1;paint-order:stroke fill markers"
       d="m 2.1208008,292.76665 v 0.60477 a 1.5148577,1.5119047 0 0 1 0.1071047,0.003 1.5148577,1.5119047 0 0 1 0.1503024,0.0183 1.5148577,1.5119047 0 0 1 0.1479353,0.033 1.5148577,1.5119047 0 0 1 0.1437932,0.0479 1.5148577,1.5119047 0 0 1 0.1378756,0.0621 1.5148577,1.5119047 0 0 1 0.1313666,0.0751 1.5148577,1.5119047 0 0 1 0.1230822,0.0879 1.5148577,1.5119047 0 0 1 0.1142055,0.0998 1.5148577,1.5119047 0 0 1 0.1029629,0.1104 1.5148577,1.5119047 0 0 1 0.091719,0.12047 1.5148577,1.5119047 0 0 1 0.079292,0.12877 1.5148577,1.5119047 0 0 1 0.065684,0.13583 1.5148577,1.5119047 0 0 1 0.052074,0.14173 1.5148577,1.5119047 0 0 1 0.037279,0.14647 1.5148577,1.5119047 0 0 1 0.022486,0.14941 1.5148577,1.5119047 0 0 1 0.0077,0.15121 H 4.2416019 A 2.1208005,2.1166629 0 0 0 2.1208013,292.7661 Z"
       id="path1456-6-7-5"
       inkscape:connector-curvature="0" />
    <path
       style="fill:#ffffff;fill-opacity:1;stroke:none;stroke-width:0.30318132;stroke-linecap:butt;stroke-linejoin:miter;stroke-miterlimit:4;stroke-dasharray:none;stroke-opacity:1;paint-order:stroke fill markers"
       d="m 3.6356583,294.88332 a 1.5148551,1.5121948 0 0 1 -0.0077,0.15124 1.5148551,1.5121948 0 0 1 -0.022486,0.14944 1.5148551,1.5121948 0 0 1 -0.037279,0.14649 1.5148551,1.5121948 0 0 1 -0.052074,0.14177 1.5148551,1.5121948 0 0 1 -0.065683,0.13586 1.5148551,1.5121948 0 0 1 -0.079294,0.12878 1.5148551,1.5121948 0 0 1 -0.091719,0.1205 1.5148551,1.5121948 0 0 1 -0.1029629,0.11039 1.5148551,1.5121948 0 0 1 -0.1142055,0.0998 1.5148551,1.5121948 0 0 1 -0.123082,0.0879 1.5148551,1.5121948 0 0 1 -0.1313663,0.075 1.5148551,1.5121948 0 0 1 -0.1378754,0.0621 1.5148551,1.5121948 0 0 1 -0.1437929,0.0478 1.5148551,1.5121948 0 0 1 -0.1479352,0.033 1.5148551,1.5121948 0 0 1 -0.150302,0.0183 1.5148551,1.5121948 0 0 1 -0.1071047,0.003 v -1.51219 z"
       id="path1563-2"
       inkscape:connector-curvature="0" />
    <path
       style="fill:#00ffff;fill-opacity:1;stroke:none;stroke-width:0.30314577;stroke-linecap:butt;stroke-linejoin:miter;stroke-miterlimit:4;stroke-dasharray:none;stroke-opacity:1;paint-order:stroke fill markers"
       d="m 0.60593748,294.88296 a 1.5148658,1.5118291 0 0 1 0.007695,-0.15121 1.5148658,1.5118291 0 0 1 0.0224862,-0.1494 1.5148658,1.5118291 0 0 1 0.0372797,-0.14645 1.5148658,1.5118291 0 0 1 0.0520732,-0.14173 1.5148658,1.5118291 0 0 1 0.0656837,-0.13584 1.5148658,1.5118291 0 0 1 0.0792944,-0.12874 1.5148658,1.5118291 0 0 1 0.0917194,-0.12048 1.5148658,1.5118291 0 0 1 0.10296292,-0.1104 1.5148658,1.5118291 0 0 1 0.1142054,-0.0998 1.5148658,1.5118291 0 0 1 0.123083,-0.0879 1.5148658,1.5118291 0 0 1 0.1313671,-0.0751 1.5148658,1.5118291 0 0 1 0.1378766,-0.0621 1.5148658,1.5118291 0 0 1 0.1437938,-0.0479 1.5148658,1.5118291 0 0 1 0.1479362,-0.033 1.5148658,1.5118291 0 0 1 0.150303,-0.0183 1.5148658,1.5118291 0 0 1 0.1071047,-0.003 v 1.51182 z"
       id="path1563-7"
       inkscape:connector-curvature="0" />
    <path
       style="fill:#000000;fill-opacity:1;stroke:none;stroke-width:0.30314577;stroke-linecap:butt;stroke-linejoin:miter;stroke-miterlimit:4;stroke-dasharray:none;stroke-opacity:1;paint-order:stroke fill markers"
       d="m 2.1208019,293.37128 a 1.5147862,1.5119087 0 0 1 0.1514953,0.008 1.5147862,1.5119087 0 0 1 0.1496976,0.0225 1.5147862,1.5119087 0 0 1 0.1467317,0.0371 1.5147862,1.5119087 0 0 1 0.1420254,0.052 1.5147862,1.5119087 0 0 1 0.1360939,0.0657 1.5147862,1.5119087 0 0 1 0.1289943,0.0792 1.5147862,1.5119087 0 0 1 0.1207153,0.0915 1.5147862,1.5119087 0 0 1 0.1106155,0.10275 1.5147862,1.5119087 0 0 1 0.099966,0.11394 1.5147862,1.5119087 0 0 1 0.088172,0.12284 1.5147862,1.5119087 0 0 1 0.075118,0.13111 1.5147862,1.5119087 0 0 1 0.062179,0.1376 1.5147862,1.5119087 0 0 1 0.047979,0.14353 1.5147862,1.5119087 0 0 1 0.033094,0.14764 1.5147862,1.5119087 0 0 1 0.018321,0.15001 1.5147862,1.5119087 0 0 1 0.00343,0.10686 H 2.1206531 Z"
       id="path1563-7-9"
       inkscape:connector-curvature="0" />
  </g>
</svg>
